<svg width="24" height="24" viewBox="0 0 24 24" fill="none" xmlns="http://www.w3.org/2000/svg">
<g clip-path="url(#clip0_1_249)">
<path d="M2.74663 6.76887C1.58704 6.99133 0.723168 7.32804 0.680824 7.34471C0.306589 7.49202 0.103881 7.89791 0.211 8.28551C0.271687 8.50525 1.74593 13.7157 5.92393 17.8937C6.01737 17.9871 6.11155 18.0788 6.20598 18.1695C5.2547 19.6313 5.41936 21.6127 6.7008 22.8941C8.17526 24.3686 10.5616 24.3687 12.0361 22.8941C12.1893 22.7409 12.3256 22.5773 12.4469 22.4062C14.1782 23.2243 15.4269 23.5775 15.5321 23.6065C15.9199 23.7137 16.3257 23.5108 16.4729 23.1367C16.4896 23.0943 16.8264 22.2304 17.0488 21.0709C10.25 18.9074 4.91018 13.5676 2.74663 6.76887Z" fill="white"/>
<path d="M23.0164 0.801135C21.9484 -0.267013 20.2195 -0.267118 19.1512 0.801135L18.0755 1.87678C17.0953 1.43546 16.0239 1.20288 14.9166 1.20288C12.8604 1.20288 10.9272 2.0036 9.47327 3.45751L9.07728 3.8535C8.3023 4.62853 7.42171 5.25909 6.46246 5.73216C8.2599 11.2332 12.5844 15.5576 18.0854 17.3551C18.5595 16.3947 19.1924 15.5119 19.9707 14.7335L20.36 14.3443C21.8139 12.8903 22.6147 10.9571 22.6147 8.90092C22.6147 7.79367 22.3821 6.72228 21.9408 5.74201L23.0163 4.66642C24.0845 3.59833 24.0848 1.86934 23.0164 0.801135Z" fill="white"/>
</g>
<defs>
<clipPath id="clip0_1_249">
<rect width="24" height="24" fill="white"/>
</clipPath>
</defs>
</svg>
