<svg width="56" height="56" viewBox="0 0 56 56" fill="none" xmlns="http://www.w3.org/2000/svg">
<g clip-path="url(#clip0_1_34)">
<path d="M9.55088 48.3569C11.9437 50.7497 14.7364 52.6311 17.8406 53.9481C21.0625 55.3122 24.4783 56 28 56C31.5218 56 34.9375 55.3122 38.1594 53.9481C41.2695 52.6312 44.0563 50.7557 46.4492 48.3569C48.842 45.9641 50.7234 43.1715 52.0404 40.0672C53.4043 36.8453 54.0922 33.4295 54.0922 29.9077C54.0922 26.3861 53.4043 22.9702 52.0404 19.7484C50.7234 16.6383 48.8479 13.8515 46.4492 11.4587C44.0563 9.06581 41.2636 7.18445 38.1594 5.86749C37.7184 5.67936 37.2716 5.50886 36.8189 5.34424V14.3689C38.1947 15.1509 39.4763 16.1268 40.6287 17.2791C44.0034 20.6538 45.8612 25.1397 45.8612 29.9077C45.8612 34.6759 44.0034 39.1617 40.6287 42.5365C37.254 45.9112 32.7681 47.769 28 47.769C23.2319 47.769 18.7461 45.9112 15.3714 42.5365C11.9967 39.1618 10.1388 34.6759 10.1388 29.9077C10.1388 25.1397 11.9967 20.6538 15.3714 17.2791C16.5237 16.1268 17.8053 15.1509 19.1811 14.3689V5.34424C18.7343 5.50886 18.2875 5.67936 17.8406 5.86749C14.7305 7.18445 11.9437 9.05993 9.55088 11.4587C7.15802 13.8515 5.27666 16.6442 3.9597 19.7484C2.59571 22.9703 1.90784 26.3861 1.90784 29.9077C1.90784 33.4294 2.59571 36.8453 3.9597 40.0672C5.27666 43.1715 7.15802 45.9641 9.55088 48.3569Z" fill="#EE5A5A"/>
<path d="M28 30.0901C30.2753 30.0901 32.1155 28.2499 32.1155 25.9747V12.5228V4.139V4.11549C32.1155 1.84021 30.2753 0 28 0C25.7247 0 23.8845 1.84021 23.8845 4.11549V4.139V12.5228V25.9805C23.8845 28.2499 25.7247 30.0901 28 30.0901Z" fill="#EE5A5A"/>
</g>
<defs>
<clipPath id="clip0_1_34">
<rect width="56" height="56" fill="white"/>
</clipPath>
</defs>
</svg>
