<svg width="23" height="23" viewBox="0 0 23 23" fill="none" xmlns="http://www.w3.org/2000/svg">
<g clip-path="url(#clip0_1_106)">
<path d="M17.2902 12.1149C17.2902 11.2709 16.6065 10.6078 15.762 10.6078H13.0257V8.03774C13.0257 7.19328 12.3405 6.50906 11.496 6.50906C10.651 6.50906 9.96631 7.19328 9.96631 8.03774V12.1134C9.96631 12.9583 10.6616 13.622 11.5055 13.622H15.7625C16.606 13.622 17.2902 12.9594 17.2902 12.1149Z" fill="black"/>
<path d="M20.4917 19.2509C24.1007 14.7357 23.8158 8.11209 19.6352 3.93045C17.464 1.76026 14.5744 0.564148 11.4955 0.564148C8.41753 0.564148 5.52696 1.75976 3.35727 3.93045C-0.673659 7.96138 -1.13181 14.4328 2.29277 18.9841C2.61729 19.4152 3.11212 19.6854 3.65115 19.7236C4.19269 19.7628 4.72419 19.5619 5.11904 19.1665C5.81732 18.4677 5.90071 17.3826 5.31697 16.5859C3.11011 13.5707 3.44016 9.30318 6.08458 6.65877C7.52735 5.21549 9.44937 4.42076 11.4955 4.42076C13.5431 4.42076 15.4641 5.21549 16.9064 6.65826C19.5804 9.33282 19.8572 13.5104 17.7373 16.496L17.0275 15.7866C16.6216 15.3812 16.0016 15.2551 15.4706 15.4757C14.9321 15.6982 14.593 16.2202 14.593 16.8039V20.9991C14.593 21.7918 15.218 22.4358 16.0107 22.4358H20.2054C20.7891 22.4358 21.3096 22.0882 21.5341 21.5482C21.7572 21.0102 21.6351 20.3953 21.2227 19.9823L20.4917 19.2509Z" fill="black"/>
</g>
<defs>
<clipPath id="clip0_1_106">
<rect width="23" height="23" fill="white"/>
</clipPath>
</defs>
</svg>
